# xmcd
#
# Track frame offsets: 
#        150
#        12675
#        26821
#        39119
#        53025
#        65468
#        78926
#        97061
#        108572
#        120058
#        135103
#        150943
#        166235
#        181615
#        193413
#        205028
#
# Disc length: 3031 seconds
#
# Revision: 1
# Processed by: cddbd v1.5.2PL0 Copyright (c) Steve Scherf et al.
# Submitted via: ExactAudioCopyFreeDBPlugin 1.0
#
DISCID=bf0bd510
DTITLE=The Ethics - The Best of The Ethics
DYEAR=2003
DGENRE=Soul
TTITLE0=Standing in the Darkness
TTITLE1=Sad Sad Story
TTITLE2=That's The Way Love Goes
TTITLE3=I Want My Baby Back
TTITLE4=Keep Away from Baby
TTITLE5=Think About Tomorrow
TTITLE6=Not Enough Love
TTITLE7=There'll Be a Sweet Tomorrow
TTITLE8=Look at Me Now
TTITLE9=Searching
TTITLE10=Tell Me
TTITLE11=Farewell
TTITLE12=Now is the Time
TTITLE13=Lonely Hearts
TTITLE14=Lost in a Lonely World
TTITLE15=Standing in the Darkness (A Tom Moulton Mix)
EXTD=
EXTT0=
EXTT1=
EXTT2=
EXTT3=
EXTT4=
EXTT5=
EXTT6=
EXTT7=
EXTT8=
EXTT9=
EXTT10=
EXTT11=
EXTT12=
EXTT13=
EXTT14=
EXTT15=
PLAYORDER=
